<svg width="94" height="18" viewBox="0 0 94 18" fill="none" xmlns="http://www.w3.org/2000/svg">
<path d="M69.4056 13.5065C66.7712 13.5065 65.0916 11.5624 65.0916 8.9927C65.0916 6.33572 66.9348 4.49597 69.4056 4.49597C71.9413 4.49597 73.7314 6.43433 73.7314 8.99107C73.7314 11.6177 71.9289 13.5065 69.4056 13.5065ZM69.4015 0.942722C64.6439 0.942722 61.0952 4.23278 61.0952 8.98464C61.0952 13.58 64.3291 17.057 69.4015 17.057C74.2601 17.057 77.7304 13.6762 77.7304 8.98172C77.7304 4.40924 74.2839 0.942722 69.4015 0.942722Z" fill="#474752"/>
<path d="M8.53516 5.06659L8.53516 16.1942C8.53516 16.5672 8.23282 16.8695 7.85986 16.8695L4.95388 16.8695C4.58092 16.8695 4.27859 16.5672 4.27859 16.1942L4.27859 5.06659L8.53516 5.06659Z" fill="#474752"/>
<path d="M8.51343 3.73846L8.51343 9.47768C8.51343 10.5965 7.60641 11.5036 6.48755 11.5036L4.25686 11.5036L4.25686 3.73846L8.51343 3.73846Z" fill="#EDB211"/>
<path d="M0 1.61816C0 1.24521 0.302338 0.942871 0.675291 0.942871H12.0944C12.4674 0.942871 12.7697 1.24521 12.7697 1.61816V3.99482C12.7697 4.36778 12.4674 4.67011 12.0944 4.67011H0.675291C0.302338 4.67011 0 4.36778 0 3.99482V1.61816Z" fill="#FFCA38"/>
<path d="M89.1016 6.58457C89.1016 7.57191 88.5028 8.303 86.8238 8.37232H84.6485C84.4927 8.37232 84.3664 8.2461 84.3664 8.09037V5.06018C84.3664 4.90452 84.4927 4.77831 84.6485 4.77831H86.8653C88.5114 4.82676 89.1243 5.47245 89.1016 6.56605V6.58457ZM93.9394 16.2068L90.386 10.849H90.4116C91.9171 10.1159 92.9565 8.70405 93.0943 6.79959V6.04747C92.9535 2.1154 89.7175 1.30791 86.9319 1.23464H84.37H80.9955H80.9954C80.7264 1.23464 80.5083 1.45251 80.5083 1.72137V10.849V16.2799C80.5083 16.5487 80.7264 16.7667 80.9955 16.7667H83.8827C84.1519 16.7667 84.37 16.5487 84.37 16.2799V11.9839C84.37 11.8574 84.4725 11.755 84.5991 11.755H86.3181C86.4673 11.755 86.6061 11.8322 86.6848 11.9588L89.311 16.1893C89.5338 16.5482 89.9266 16.7667 90.3495 16.7667H93.6386C93.9264 16.7667 94.0985 16.4465 93.9394 16.2068Z" fill="#474752"/>
<path d="M23.7482 6.58457C23.7482 7.57191 23.1496 8.303 21.4706 8.37232H19.2953C19.1394 8.37232 19.0131 8.2461 19.0131 8.09037V5.06018C19.0131 4.90452 19.1394 4.77831 19.2953 4.77831H21.5121C23.1581 4.82676 23.7711 5.47245 23.7482 6.56605V6.58457ZM28.5862 16.2068L25.0327 10.849H25.0583C26.5638 10.1159 27.6032 8.70405 27.7411 6.79959V6.04747C27.6002 2.1154 24.3642 1.30791 21.5787 1.23464H19.0167H15.6421C15.3731 1.23464 15.1549 1.45251 15.1549 1.72137V10.849V16.2799C15.1549 16.5487 15.3731 16.7667 15.6421 16.7667H18.5295C18.7986 16.7667 19.0167 16.5487 19.0167 16.2799V11.9839C19.0167 11.8574 19.1192 11.755 19.2457 11.755H20.9648C21.1141 11.755 21.2528 11.8322 21.3314 11.9588L23.9577 16.1893C24.1806 16.5482 24.5734 16.7667 24.9962 16.7667H28.2853C28.5732 16.7667 28.7451 16.4465 28.5862 16.2068Z" fill="#474752"/>
<path d="M41.0347 13.1821H35.2995C35.0326 13.1821 34.966 13.0935 34.966 12.8494V11.03C34.966 10.786 35.0326 10.6972 35.2995 10.6972H40.279C40.6791 10.6972 40.8569 10.5197 40.8569 10.1202V7.74626C40.8569 7.32463 40.6791 7.14718 40.279 7.14718H35.2995C35.0326 7.14718 34.966 7.08059 34.966 6.81434V5.08376C34.966 4.83972 35.0326 4.7509 35.2995 4.7509H41.0125C41.4126 4.7509 41.6128 4.59568 41.6128 4.17399V1.7777C41.6128 1.37844 41.4126 1.20094 41.0125 1.20094H31.676C31.2759 1.20094 31.0979 1.37844 31.0979 1.7777V16.1553C31.0979 16.5547 31.2759 16.7322 31.676 16.7322H41.0347C41.4348 16.7322 41.6349 16.5547 41.6349 16.1553V13.759C41.6349 13.3375 41.4348 13.1821 41.0347 13.1821Z" fill="#474752"/>
<path d="M60.1309 1.1823L57.2212 1.18215C56.8699 1.18215 56.5497 1.37864 56.3976 1.68758L52.4204 9.76843L48.3964 1.69267C48.2409 1.38029 47.9162 1.18215 47.5604 1.18215H44.5526C44.0968 1.19158 44.0113 1.41737 44.1414 1.75472L51.5562 16.0641C51.8358 16.5488 52.0483 16.7476 52.3546 16.7476C52.6517 16.7354 52.8491 16.5637 53.1467 16.0737L60.513 1.76983C60.679 1.38044 60.5374 1.19337 60.1309 1.1823Z" fill="#474752"/>
</svg>
